<svg height="440" width="440" xml:space="preserve" xmlns="http://www.w3.org/2000/svg"><path style="display:inline;fill:#000;fill-opacity:0" fill="none" d="M0 0h440v440H0z"/><path style="fill:#bae16c;fill-opacity:1;fill-rule:nonzero;stroke:none" d="M2653.76 1885.96c-117.05 49.53-239.92-54.6-365.84-71.81-42.64-5.83-86.37-1.45-128.63-9.58-67.71-13.01-127.23-57.2-195.76-64.81-86.43-9.6-171.87 44.06-216.44 118.74-44.56 74.67-53.13 166.32-42.03 252.57 8.47 65.74 27.29 134.63 3.22 196.38-18.93 48.56-61.35 83.68-89.18 127.75-46.97 74.36-47.71 175.43-1.83 250.47 17.57 28.73 41.53 54.31 51.49 86.48 9.74 31.45 4.89 65.25 2.79 98.11a569.15 569.15 0 0 0 7.01 132.17c4.02 23.45 9.91 47.49 24.66 66.15 50.37 63.72 155.66 23.68 230.54 55.13 82.02 34.46 101.75 139.23 151.51 212.97 14.12 20.94 31.9 40.35 54.87 50.84 24.75 11.3 53 11.23 80.19 10.45 139.6-4.02 280.36-21.46 418.16 1.23 137.8 22.68 276.99 94.42 337.15 220.46 27.73 58.11 41.38 129.79 96.16 163.62 57.09 35.26 133.29 12.4 196.26 35.57 67.18 24.73 108.41 97.58 176.48 119.73 81.3 26.46 167-29.71 221.17-95.86 66.76-81.53 108.94-182.92 119.71-287.75 3.23-31.42 3.27-64.94-12.35-92.39-27.58-48.47-90.55-59.73-143.27-77.88-116.3-40.02-205.74-132.25-309.22-198.72-183.32-117.77-421.21-162.03-555.76-333.41a8964.61 8964.61 0 0 1 912.43-58.53c25.62-.34 54.82-2.21 70.82-22.21 20.2-25.24 6.99-62.24-6.91-91.42l-69.23-145.35c-258.94 43.92-532.5-4.01-761.09-133.33-37.31-21.11-75.27-46.3-93.73-84.98-21.72-45.51-11.88-99.77-25-148.46-13.62-50.58-50.56-90.88-80.03-134.18-29.47-43.31-52.69-98-34.49-147.12" transform="matrix(.13333 0 0 -.13333 -141.33 590.62)"/><path style="fill:#dfd8ef;fill-opacity:1;fill-rule:nonzero;stroke:none" d="M3936.91 2230.05a823.88 823.88 0 0 0 43.62-201.96c1.85-21.23 2.71-43.48-6-62.92-8.53-19.02-25.14-32.99-41.21-46.26l-131.03-108.23c-25.44-21.01-51.21-42.23-80.98-56.46-34.12-16.31-71.99-22.73-109.29-28.96l-336.15-56.22-285.63-47.76c-99.05-16.57-198.67-33.18-299.09-32.96-55.92.12-111.79 5.48-166.87 15.12-23.62 4.13-47.47 9.18-68.67 20.38-42.61 22.5-70.37 70.56-68.56 118.72 1.81 48.15 33.09 94 77.27 113.24 52.27 22.76 117.33 10.17 164.26 42.55 25.93 17.9 41.9 46.94 53.5 76.23 23.66 59.79 32.83 124.18 50.26 186.07 17.42 61.89 45.21 124.1 96.12 163.37 110.7 85.37 156.51 53.2 272.76 130.84 28.68 19.15 179.32 24.39 211.11 37.75 23.95 10.06 50.44 11.81 76.37 13.31 50.04 2.88 100.1 5.26 150.18 7.16 41.93 1.58 85.32 2.58 124.13-13.36 33.08-13.57 60.08-38.36 86.23-62.74a15019.02 15019.02 0 0 0 171.95-162.85" transform="matrix(.13333 0 0 -.13333 -141.33 590.62)"/><path style="fill:#fff;fill-opacity:1;fill-rule:nonzero;stroke:none" d="M3320.72 1958.61c-28.95 20.04-68.19 24.76-91.66 51.01-16.56 18.52-22.01 45.22-18.27 69.77 3.74 24.56 15.79 47.18 30.59 67.13 14.91 20.09 32.68 37.89 51.39 54.49 15.58 13.82 32.76 27.3 53.2 31.27 29.68 5.77 58.97-9.51 85.35-24.27 16.17-9.05 32.76-18.44 44.34-32.91 13.77-17.21 18.89-39.7 21.83-61.54 4.83-35.85 4.31-74.36-13.99-105.55-29.54-50.34-95.73-66.05-154-62.65m458.83 1506.06c22.24-38.66 27.21-85.34 22.26-129.66-4.94-44.32-19.15-87.01-33.27-129.32-3.01-9.01-6.28-18.44-13.3-24.85-6.44-5.89-15.2-8.44-23.7-10.46a321.81 321.81 0 0 0-154.46 1.65c-19.86 5.16-41.84 12.03-59.94 2.39-26.9-14.34-25.58-52.37-35.89-81.05-9.93-27.61-33.35-49.02-60.13-61.01-26.78-11.98-56.71-15.34-86.04-14.71-46.13.99-93.84 12.48-128.8 42.58-16.65 14.34-30.62 37.33-21.81 57.45 4.63 10.57 14.53 17.72 24.11 24.16 42.36 28.48 87.07 53.38 128.92 82.6 55.74 38.91 106.21 85.33 164.21 120.77 75.96 46.41 162.28 72.5 247.53 98.12" transform="matrix(.13333 0 0 -.13333 -141.33 590.62)"/><path style="fill:#521541;fill-opacity:1;fill-rule:nonzero;stroke:none" d="M1996.34 2866.06a68.78 68.78 0 1 0-137.56 0 68.78 68.78 0 0 0 137.56 0m390.73 292.68a68.78 68.78 0 1 0-137.56 0 68.78 68.78 0 0 0 137.56 0m898.54 389.27a68.78 68.78 0 1 0-137.56 0 68.78 68.78 0 0 0 137.56 0m308.78 187.31a68.79 68.79 0 1 0-137.58.02 68.79 68.79 0 0 0 137.58-.02" transform="matrix(.13333 0 0 -.13333 -141.33 590.62)"/><path style="fill:none;stroke:#521541;stroke-width:110;stroke-linecap:round;stroke-linejoin:round;stroke-miterlimit:10;stroke-dasharray:none;stroke-opacity:1" d="M1812.68 2270.45s-248.04 52.68-248.04 291.95c0 151.46 98.78 243.66 98.78 243.66s-56.84 194.18 52.68 289.75c120.73 105.37 300.73 0 300.73 0s-35.12 212.93 118.54 298.54c153.66 85.61 360-61.46 360-61.46l485.12 239.26s-15.37 195.37 103.17 243.66c118.53 48.3 226.09-65.85 226.09-65.85s-30.57 191.13 111.96 230.49c294.14 81.22 368.78-482.93 368.78-482.93L2750 2832.4l1000.97-39.51s4.39-184.39-92.19-263.42m-2370.73 522.44 122.93-76.83m-171.22-215.12 109.75-13.17m693.66-594.88s290.53-170.23 116.34-370.97c-163.17-188.05-496.78-24.16-482.92 287.56 4.39 98.78 50.49 201.95 50.49 201.95" transform="matrix(.13333 0 0 -.13333 -141.33 590.62)"/><path style="fill:none;stroke:#521541;stroke-width:110;stroke-linecap:round;stroke-linejoin:round;stroke-miterlimit:10;stroke-dasharray:none;stroke-opacity:1" d="M2662.2 1894.35s-286.83 23.54-275.13-187.31c9.27-166.81 380.49-178.54 1132.68-40.98 378.32 69.19 462.44 225.37 392.2 591.22-70.24 365.85-538.54 310.24-898.54 178.54-360-131.71-307.31-664.39-307.31-664.39s-6.59-117.81 10.97-170.49" transform="matrix(.13333 0 0 -.13333 -141.33 590.62)"/><path style="fill:none;stroke:#521541;stroke-width:110;stroke-linecap:round;stroke-linejoin:round;stroke-miterlimit:10;stroke-dasharray:none;stroke-opacity:1" d="M3522.19 2079.47c0-84.05-68.14-152.19-152.19-152.19-84.06 0-152.2 68.14-152.2 152.19 0 84.06 68.14 152.2 152.2 152.2 84.05 0 152.19-68.14 152.19-152.2zM2340.24 2204.6s201.96-40.98 386.35-38.05m1063.9 1330.97s100.97-285.36-81.22-353.41c-182.2-68.05-234.88 127.31-234.88 127.31s60.4-203.58-70.25-282.44c-166.82-100.69-246.58 80.98-246.58 80.98M2146.7 1761.61l263.25 43.87m-950.68-158.44 413.76 68.96m2307.21 381.04-229.51-43.23" transform="matrix(.13333 0 0 -.13333 -141.33 590.62)"/></svg>