<svg xmlns="http://www.w3.org/2000/svg" xml:space="preserve" width="440" height="440"><path fill="none" d="M0 0h440v440H0z"/><path fill="#bae16c" d="M213 340c-16-7-32 7-49 9l-17 1c-9 2-17 8-26 9q-19 0-29-16-8-16-6-33 4-13 1-27l-12-17q-10-17 0-33l7-12v-13l1-17q0-5 3-9c7-9 21-3 31-8 11-4 13-18 20-28l7-7 11-1c19 0 37 3 56 0 18-3 37-13 45-30 3-7 5-17 13-21 7-5 17-2 26-5 9-4 14-13 23-16 11-4 23 4 30 13q13 17 16 38 0 7-2 12c-4 7-12 8-19 11-16 5-27 17-41 26-25 16-56 22-74 45a1195 1195 0 0 0 121 7q7 0 10 3 3 7-1 13l-9 19q-54-8-102 18-8 4-12 11-3 9-4 20-3 10-10 18-7 9-5 19"/><path fill="#dfd8ef" d="m384 294 6 27-1 8q-2 4-6 6l-17 15-11 7-14 4-45 7-38 7q-21 4-40 4l-22-2-10-3q-8-5-9-15 2-11 11-15c7-4 15-2 22-6q4-3 7-10l6-25q4-13 13-22c15-11 21-7 36-17 4-3 24-4 29-5q4-3 10-2l20-1q8-1 16 2 7 3 12 8l23 22"/><path fill="#fff" d="m302 330-12-7a11 11 0 0 1-3-9q1-5 4-9l7-7 7-5q6 1 11 4 4 1 6 4 3 3 3 8 2 8-2 14-6 10-20 9m61-201q4 8 3 17l-4 17-2 4-3 1a43 43 0 0 1-21 0q-4-2-8 0-3 3-5 10-2 6-8 8-5 3-11 2-10 1-17-5-4-3-3-8l3-3 17-11 22-16q16-9 33-13"/><path fill="#521541" d="M125 209a9 9 0 1 1-18 0 9 9 0 0 1 18 0m52-39a9 9 0 1 1-18 0 9 9 0 0 1 18 0m120-52a9 9 0 1 1-18 0 9 9 0 0 1 18 0m41-25a9 9 0 1 1-18 0 9 9 0 0 1 18 0"/><path fill="none" stroke="#521541" stroke-linecap="round" stroke-linejoin="round" stroke-miterlimit="10" stroke-width="15" d="M101 288s-33-7-33-39c0-20 13-32 13-32s-8-26 7-39c16-14 40 0 40 0s-5-28 16-40c20-11 48 9 48 9l64-32s-2-26 14-33c16-6 30 9 30 9s-4-25 15-31c39-11 49 65 49 65l-138 88 133 6s1 24-12 35M31 184l16 10m-23 29 15 2m92 79s39 23 16 50c-22 25-66 3-64-39 0-13 6-27 6-27"/><path fill="none" stroke="#521541" stroke-linecap="round" stroke-linejoin="round" stroke-miterlimit="10" stroke-width="15" d="M214 338s-38-3-37 25q1 34 151 6c51-9 62-30 53-79s-72-41-120-24-41 89-41 89-1 15 1 23"/><path fill="none" stroke="#521541" stroke-linecap="round" stroke-linejoin="round" stroke-miterlimit="10" stroke-width="15" d="M329 314a20 20 0 1 1-41 0 20 20 0 0 1 41 0m-158-17s27 5 52 5m141-177s14 38-10 47-32-17-32-17 8 27-9 37c-22 14-33-10-33-10M145 356l35-6M54 371l55-9m307-51-30 6"/></svg>